<svg width="35" height="35" viewBox="0 0 35 35" fill="none" xmlns="http://www.w3.org/2000/svg">
<path d="M17.0557 0C7.64826 0.000261365 0.0215174 7.62618 0.0214844 17.0332C-0.0234279 17.8836 0.00280429 18.7185 0.0917969 19.5342C0.0761822 19.5341 0.0605607 19.5332 0.0449219 19.5332V33.5332C2.57938 33.5332 4.79886 32.186 6.02734 30.1689C9.04223 32.6067 12.9251 34.0663 17.0557 34.0664C26.4633 34.0663 34.0898 26.4404 34.0898 17.0332C34.0898 7.62606 26.4632 6.45277e-05 17.0557 0ZM18.0449 12.7158C21.9107 12.7159 25.0447 15.85 25.0449 19.7158C25.0449 23.5818 21.9109 26.7158 18.0449 26.7158V12.7158ZM16.0449 21.7158C12.179 21.7157 9.04492 18.5818 9.04492 14.7158C9.04512 10.8501 12.1791 7.71592 16.0449 7.71582V21.7158Z" fill="#111111"/>
</svg>
